<?xml version="1.0" encoding="UTF-8" standalone="no"?> <svg width="52" height="52" viewBox="0 0 52 52" fill="none" xmlns="http://www.w3.org/2000/svg">
<style type="text/css">
  path { fill: white; }
</style>
<path d="M15.1257 9.75C16.624 9.75 18.0081 9.86416 19.2781 10.2066C20.5481 10.4349 21.5897 10.9058 22.5173 11.4766C23.4448 12.0474 24.1297 12.8607 24.6006 13.9024C25.0572 14.9441 25.2998 16.2141 25.2998 17.5982C25.2998 19.2107 24.9573 20.5948 24.144 21.6365C23.4448 22.6782 22.3032 23.6057 20.9048 24.2906C22.874 24.8614 24.3723 25.9031 25.2855 27.2872C26.1988 28.6713 26.7838 30.398 26.7838 32.3671C26.7838 33.9796 26.4414 35.3637 25.8563 36.5196C25.2855 37.6754 24.358 38.7171 23.3164 39.402C22.2747 40.1012 21.0047 40.672 19.6206 41.0145C18.2364 41.3569 16.8523 41.5852 15.4681 41.5852L0 41.6138V9.75H15.1257ZM14.1981 22.6782C15.4681 22.6782 16.5098 22.3357 17.3089 21.7506C18.108 21.1656 18.4647 20.1382 18.4647 18.8682C18.4647 18.169 18.3506 17.4841 18.1223 17.0274C17.8939 16.5708 17.5515 16.2141 17.0806 15.8716C16.624 15.6433 16.1531 15.415 15.5823 15.3008C15.0115 15.1867 14.4265 15.1867 13.7415 15.1867H7.04913V22.6924C7.04913 22.6782 14.1981 22.6782 14.1981 22.6782ZM14.5406 36.3055C15.2398 36.3055 15.9248 36.1914 16.5098 36.0772C17.0806 35.9631 17.6656 35.7347 18.1223 35.378C18.5789 35.0213 18.9356 34.6788 19.2781 34.108C19.5064 33.5372 19.7347 32.838 19.7347 32.0247C19.7347 30.4122 19.2781 29.2564 18.3506 28.443C17.4231 27.7438 16.1531 27.4014 14.6548 27.4014H7.04913V36.2913H14.5406V36.3055Z" fill="black"/>
<path d="M36.8296 36.1914C37.7571 37.1189 39.1412 37.5755 40.982 37.5755C42.252 37.5755 43.4078 37.233 44.3353 36.648C45.2628 35.9488 45.8336 35.2639 46.0619 34.5647H51.7126C50.7851 37.3329 49.401 39.3021 47.5602 40.5721C45.7194 41.7279 43.5219 42.4129 40.8678 42.4129C39.0271 42.4129 37.4003 42.0704 35.902 41.4854C34.4037 40.9146 33.2479 40.1012 32.2062 38.9454C31.1646 37.9037 30.3655 36.6337 29.8946 35.1354C29.3238 33.6371 29.0812 32.0247 29.0812 30.1696C29.0812 28.443 29.3095 26.8163 29.8946 25.318C30.4796 23.8197 31.2787 22.5497 32.3204 21.3939C33.3621 20.3522 34.6321 19.4247 36.0162 18.8539C37.5145 18.2832 39.0128 17.9264 40.8678 17.9264C42.837 17.9264 44.5636 18.2689 46.0619 19.0823C47.5602 19.8956 48.716 20.8089 49.6436 22.193C50.5711 23.463 51.256 24.9613 51.7269 26.5737C51.9552 28.1862 52.0694 29.8129 51.9552 31.6537H35.2171C35.2171 33.5372 35.902 35.2639 36.8296 36.1914ZM44.107 24.0623C43.2936 23.2489 42.0237 22.7923 40.5254 22.7923C39.4837 22.7923 38.6846 23.0206 37.9854 23.3631C37.2862 23.7056 36.8296 24.1765 36.3729 24.6331C35.9163 25.0897 35.6737 25.6748 35.5596 26.2455C35.4454 26.8163 35.3313 27.2872 35.3313 27.7438H45.7194C45.4911 26.0315 44.9061 24.8757 44.107 24.0623ZM33.9471 11.9475H46.8753V15.0583H33.9471V11.9475Z" fill="black"/>
</svg>
