<?xml version="1.0" encoding="UTF-8" standalone="no"?> <svg width="52" height="52" viewBox="0 0 52 52" fill="none" xmlns="http://www.w3.org/2000/svg">
<style type="text/css">
  path { fill: white; }
</style>
<path d="M25.9999 6.10352e-05C11.6406 6.10352e-05 0 11.6407 0 26C0 37.0148 6.85312 46.431 16.5249 50.2194C16.2977 48.1623 16.0922 44.9986 16.615 42.7529C17.0875 40.7237 19.6638 29.8292 19.6638 29.8292C19.6638 29.8292 18.8861 28.2717 18.8861 25.9691C18.8861 22.3538 20.9816 19.6547 23.5907 19.6547C25.8089 19.6547 26.8803 21.3201 26.8803 23.3171C26.8803 25.5479 25.46 28.8832 24.7271 31.9739C24.1146 34.5617 26.0248 36.6721 28.5772 36.6721C33.1983 36.6721 36.7505 31.7996 36.7505 24.7662C36.7505 18.5409 32.2774 14.1884 25.8901 14.1884C18.4923 14.1884 14.15 19.7372 14.15 25.4716C14.15 27.7063 15.0108 30.1025 16.085 31.4051C16.2975 31.6625 16.3286 31.888 16.2653 32.1508C16.0679 32.972 15.6293 34.738 15.5432 35.0994C15.4298 35.5754 15.1664 35.6764 14.6736 35.4471C11.4264 33.9356 9.39617 29.1879 9.39617 25.3746C9.39617 17.1731 15.3552 9.6409 26.5753 9.6409C35.5947 9.6409 42.6038 16.068 42.6038 24.6572C42.6038 33.6178 36.954 40.8292 29.1122 40.8292C26.4775 40.8292 24.0008 39.4605 23.1529 37.8437C23.1529 37.8437 21.8492 42.8079 21.5332 44.0244C20.9462 46.2827 19.3616 49.1135 18.3017 50.8404C20.7344 51.5936 23.3196 51.9999 25.9999 51.9999C40.3594 51.9999 52 40.3592 52 26C52 11.6407 40.3594 6.10352e-05 25.9999 6.10352e-05Z" fill="black"/>
</svg>
